<svg xmlns="http://www.w3.org/2000/svg" width="1200" height="280" viewBox="0 0 1200 280" role="img" aria-label="Chloe Z: welcome to my little corner"><defs><linearGradient id="sky" x2="1" y2="1"><stop stop-color="#edf7ff"/><stop offset="1" stop-color="#cce6fa"/></linearGradient></defs><rect width="1200" height="280" rx="28" fill="url(#sky)"/><g fill="white" opacity=".8"><ellipse cx="125" cy="78" rx="66" ry="22"/><circle cx="103" cy="61" r="24"/><circle cx="138" cy="55" r="30"/><ellipse cx="1070" cy="173" rx="76" ry="24"/><circle cx="1045" cy="152" r="28"/><circle cx="1083" cy="145" r="34"/></g><g fill="#76a9cd"><path d="M1010 40l4 12 12 4-12 4-4 12-4-12-12-4 12-4z"/><path d="M230 160l3 9 9 3-9 3-3 9-3-9-9-3 9-3z"/><circle cx="955" cy="94" r="4"/><circle cx="185" cy="110" r="3"/></g><text x="600" y="122" text-anchor="middle" font-family="Segoe UI,Arial,sans-serif" font-size="54" font-weight="700" fill="#315d7d">Chloe Z</text><text x="600" y="164" text-anchor="middle" font-family="Segoe UI,Arial,sans-serif" font-size="21" letter-spacing="2" fill="#527b99">welcome to my little corner</text><path d="M0 234Q150 207 300 237T600 238T900 232T1200 237V280H0Z" fill="white" opacity=".55"/><path d="M0 253Q170 231 340 252T680 251T1020 250T1200 251V280H0Z" fill="white" opacity=".65"/></svg>